<?xml version="1.0" encoding="UTF-8" standalone="no"?>
<svg viewBox="0 0 272.32816 289.50076" xmlns="http://www.w3.org/2000/svg">
<g transform="translate(-265.37155,-301.52028)">
<path d="m398.3479,566.13047c-.32306-.32305-2.31056-.77681-4.41667-1.00834s-4.95429-.62986-6.32929-.88518-3.78428-.66707-5.35397-.91501-3.85306-1.38941-5.07418-2.53659-2.46595-1.84007-2.76628-1.53973-2.61614-1.60806-5.14624-4.24086l-7.12975-7.42174c-1.39127-1.44915-2.52958-3.5317-2.52958-4.62787s-.64663-3.54066-1.43696-5.43218c-1.64644-3.94049-1.83833-13.73881-.36468-18.62212 1.21653-4.03131.69432-4.72194-2.36271-3.12474-2.17169,1.13463-2.15052,1.04572.30142-1.26657 1.45039-1.36778 2.94864-3.90546 3.32946-5.63928s1.14238-3.15241 1.69238-3.15241c.57988,0 .75763-1.36539.42309-3.25-.37106-2.09034-.28827-2.57635.23201-1.36207 .66809,1.55922 1.12738,1.0369 2.63799-3 1.00598-2.68836 2.19283-5.35633 2.63743-5.92883s1.30626-3.27249 1.91477-6c.71459-3.20293 2.23775-6.12969 4.3011-8.26464 1.75709-1.81805 2.97304-3.39305 2.70213-3.5-.72601-.28662 2.19066-8.69446 3.01609-8.69446 .38688,0 .63355-1.0125.54817-2.25s.47781-3.2625 1.25154-4.5 1.06029-2.25.63679-2.25 .0117-.86377.96711-1.91948 1.60154-2.96821 1.43584-4.25-.03396-2.78052.29275-3.33052 .23195-1.9-.21057-3c-.44511-1.10644-.83598-1.37628-.87487-.60398-.04402.87448-1.02595.36484-2.62832-1.36414-2.2708-2.45024-2.43569-3.1111-1.46852-5.88553 .59923-1.71895.70809-3.25251.24192-3.4079s-.65396-1.96011-.41731-4.01049c.6371-5.51992.61157-7.40908-.14495-10.72796-.45362-1.99003-.39857-2.34472.16353-1.05355 .79286,1.82124.88822,1.79019 1.48261-.48275 .35112-1.34269.13701-2.88419-.4787-3.44645-.75751-.69175-.93051-.68584-.54066.01846 .3153.56965-.32391,1.03572-1.42049,1.03572-1.56262,0-1.70677-.22397-.66659-1.03572 3.38881-2.64459 3.87418-15.16514.50007-12.89986-.70792.47528-.47842.11702.51-.79614s1.79713-2.17722 1.79713-2.80902 .45-.87061 1-.53069c1.47491.91155 1.21552-.74728-.49979-3.19624-1.44887-2.06856-1.13173-5.30376.51991-5.30376 .44339,0 .30856-1.31828-.29962-2.92951-.84591-2.24108-.79417-3.59233.22015-5.75 .72926-1.55127 1.44458-4.74353 1.58962-7.09391 .3097-5.01872 1.96412-7.41292 4.84641-7.0135 4.0257.55786 8.16079-21.98953 4.46266-24.33353-1.1142-.70622-1.11123-.8515.01765-.86424 .81329-.00917 1.11838-.63712.76145-1.56725-.34149-.88992-.17385-1.29132.39301-.94098 .55303.34179.98855-.51646.98855-1.94806 0-2.3624.34228-2.55902 4.45487-2.55902 4.14938,0 6.32382,10.4852 3.25545,15.69785-1.31571,2.23517.57394,7.46108 2.51438,6.95364 1.08522-.28379 1.71061-.25347 1.38976.06739s.12296,1.09985.98624,1.7311 1.8871,2.70075 2.27512,4.59887c.8128,3.97602 6.78293,5.09178 12.52782,2.34132 3.27994-1.57033 8.01396-1.87488 7.13907-.45927-.31644.512-.11799,1.21355.44098,1.55902s1.01631,2.34907 1.01631,4.45247c0,4.05294-2.62774,6.02987-4.94063,3.71698-.81238-.81238-1.63428-.78143-3.07076.11567-1.07881.67373-3.18901,1.22496-4.68933,1.22496-2.51889,0-2.60328.12457-1.10157,1.62628s1.47981,1.88703-.28572,5.03041c-1.05159,1.87228-1.91199,5.21701-1.91199,7.43274 0,2.79053-.35481,3.80932-1.15451,3.31508-.78388-.48447-.87971-.26889-.29849.67153 1.15302,1.86563 1.53521,14.95464.49114,16.82029-.50707.90609-.28843,2.31824.55925,3.61195 1.18986,1.81596 1.18859,2.40214-.0087,4.03955-1.20656,1.65006-1.18998,2.32252.11972,4.8552 1.37192,2.653 1.3612,3.20913-.10995,5.69958-1.20174,2.03437-1.3226,2.94985-.45983,3.48307 .70421.43523.90319.29101.49957-.36207-.36895-.59698-.25234-1.34405.25914-1.66016 1.03041-.63683.44476,4.40656-.93228,8.02846-.56694,1.49116-.48324,2.40203.24297,2.6441 .68448.22816.84521,1.41573.42059,3.10754-.45017,1.79363-1.10835,2.48543-1.90794,2.00539-.67137-.40307-.54568.11491.27932,1.15106 1.18207,1.48461 1.20167,1.70411.09248,1.03559-1.08716-.65525-1.27909-.35721-.84326,1.30942 .31106,1.18948.15336,1.9038-.35143,1.59182-1.6188-1.00047-4.89779.64138-4.89779,2.45242 0,5.65408 4.8962,15.46313 6.21827,12.4577 .6056-1.37668.68814-1.19355.32419.71922-.28695,1.50804.21268,3.56693 1.21169,4.99321 .93498,1.33488 1.79793,3.10511 1.91766,3.93384s1.14256,2.12417 2.27294,2.87875 2.05525,2.42625 2.05525,3.71482c0,1.31939.87369,2.81043 2,3.41321 1.1.5887 2.00663,1.84203 2.01474,2.78518s.66308,2.83982 1.45549,4.21482c4.28855,7.4415 8.52977,17.2579 8.52977,19.74232 0,1.55914.85282,4.50755 1.89515,6.55202s1.49233,3.96618 1,4.27046-.89515,2.70168-.89515,5.32755-.31302,5.08734-.69561,5.46993-.78975,1.24508-.9048,1.91666c-.9391,5.48161-1.49856,7.16699-2.61401,7.87474-.70707.44863-.91346.82259-.45866.83101s-.4853,1.32753-2.08913,2.93136c-2.28499,2.285-2.843,3.63754-2.5785,6.25 .18565,1.83367.07482,2.76865-.24628,2.07772s-.9954-1.00187-1.49842-.69098-.92148-.02381-.9299-.74377c-.00935-.79945-.30131-.91974-.75-.30902-.40408.55-1.63469,1.57535-2.73469,2.27854s-4.22076,2.7282-6.93502,4.5-5.33055,3.09937-5.81396,2.95014c-1.73537-.53569-8.79872,1.88513-8.22218,2.81799 .6502,1.05204.14116,1.28999-.78288.36595zm-4.74596-11.47164c0-.58246.4293-.79369.95401-.4694 1.57924.97602 6.10213-.56464 5.36719-1.82825-.36575-.62883.24784-.34448 1.36352.6319 1.80727,1.58161 2.16658,1.60887 3.29434.25 .69621-.83888 1.70522-1.52523 2.24226-1.52523 2.47092,0 7.84752-3.37822 7.3675-4.62914-.31173-.81235.36797-1.57289 1.70574-1.90865 2.00156-.50236 3.7706-2.63786 7.40117-8.93432 1.89452-3.28565 2.54986-8.52526 1.06853-8.5432-.81059-.00982-.89341-.27895-.2308-.75 1.23713-.87948 1.25243-2.23475.04672-4.1392-.62014-.97953-.52955-1.18224.29939-.66992 .85389.52773 1.03021-.06235.62614-2.09549-.30935-1.55654-.83736-4.96758-1.17337-7.58008s-.94199-4.75-1.34663-4.75-1.02069-1.42492-1.36901-3.16649-1.75456-4.63654-3.125-6.43328-2.4917-3.91671-2.4917-4.71106c0-1.74783-2.42297-3.93287-3.34201-3.01383-.36189.3619-.65799-.31701-.65799-1.50867s-.43588-2.16667-.96862-2.16667-.69992-.70019-.37152-1.55598c.57973-1.51077-2.93296-5.83758-3.92987-4.84067-.2656.2656-.75835-.23487-1.095-1.11216-.41784-1.08888-.22487-1.35576.60805-.84098 .67108.41475.21592-.52257-1.01145-2.08292s-2.23159-3.47788-2.23159-4.26117-.39379-1.18078-.8751-.88331-1.15211-1.13848-1.49067-3.19099-1.29477-5.02076-2.1249-6.59613-1.50933-3.71287-1.50933-4.75c0-1.09915-.72994-1.91862-1.75-1.96464-.9625-.04342-1.21278-.29749-.55618-.56461s.91763-1.2054.58006-2.08509c-.40492-1.05521-.21957-1.35582.54473-.88346s.95204.178.56295-.83595c-.71525-1.86391-2.00693-2.04506-2.15292-.30194-.37125,4.43251-.69988,6.3113-1.18066,6.75-1.08213.98738-3.04816,4.99804-3.05712,6.23643-.00503.69496-1.11596,3.51357-2.46873,6.26357s-2.47366,5.51632-2.49086,6.14738c-.02881,1.0571-4.71124,11.34412-7.16129,15.73292-1.09606,1.9634-2.09942,5.92995-2.22506,8.79628-.04042.92212-.39597,1.47728-.79011,1.23369-.97681-.6037-2.23234,1.56633-2.64467,4.571-.18728,1.36469-.65059,2.71469-1.02958,3-3.02971,2.28073-5.42544,17.61326-2.99311,19.15574 .86526.54871.91658.83758.15061.84768-1.90752.02514-.20775,8.64745 2.56578,13.01531 2.40159,3.78211 7.28791,9 8.4281,9 .55582,0 1.81508.72807 2.79836,1.61792 2.83205,2.56297 11.8697,4.33176 11.8697,2.32306z"/>
<path d="m542.4519,442.23004a133.84521,134.3503 0 1,1 -267.69043,0 133.84521,134.3503 0 1,1 267.69043,0z" fill="none" stroke="#000" stroke-width="21.05063" transform="matrix(.94099,0,0,1.00136,17.04061,3.43798)"/>
<path d="m466.68588-28.45295h261.00247v21.28299h-261.00247z" transform="matrix(.65119,.75892,-.70342,.71077,0,0)"/>
</g>
</svg>
